<?xml version="1.0" encoding="UTF-8"?>
<svg xmlns="http://www.w3.org/2000/svg" width="640" height="240" viewBox="0 0 640 240">
  <!-- Background of the event log panel: chamfered dark panel, header bar, scanlines and corner marks. No filters, patterns or text, so Unity's vector importer can read it. -->
  <defs>
    <linearGradient id="panelFill" x1="0" y1="0" x2="0" y2="1">
      <stop offset="0" stop-color="#0d1e3a"/>
      <stop offset="1" stop-color="#050b18"/>
    </linearGradient>
    <linearGradient id="headerFill" x1="0" y1="0" x2="1" y2="0">
      <stop offset="0" stop-color="#3fd0ff" stop-opacity="0.55"/>
      <stop offset="0.6" stop-color="#3fd0ff" stop-opacity="0.15"/>
      <stop offset="1" stop-color="#3fd0ff" stop-opacity="0"/>
    </linearGradient>
  </defs>
  <path d="M14,0 H626 L640,14 V226 L626,240 H14 L0,226 V14 Z" fill="url(#panelFill)"/>
  <path d="M18,6 H622 L634,16 V30 H6 V16 Z" fill="url(#headerFill)"/>
  <rect x="8" y="40" width="624" height="1" fill="#3fd0ff" fill-opacity="0.06"/>
  <rect x="8" y="48" width="624" height="1" fill="#3fd0ff" fill-opacity="0.06"/>
  <rect x="8" y="56" width="624" height="1" fill="#3fd0ff" fill-opacity="0.06"/>
  <rect x="8" y="64" width="624" height="1" fill="#3fd0ff" fill-opacity="0.06"/>
  <rect x="8" y="72" width="624" height="1" fill="#3fd0ff" fill-opacity="0.06"/>
  <rect x="8" y="80" width="624" height="1" fill="#3fd0ff" fill-opacity="0.06"/>
  <rect x="8" y="88" width="624" height="1" fill="#3fd0ff" fill-opacity="0.06"/>
  <rect x="8" y="96" width="624" height="1" fill="#3fd0ff" fill-opacity="0.06"/>
  <rect x="8" y="104" width="624" height="1" fill="#3fd0ff" fill-opacity="0.06"/>
  <rect x="8" y="112" width="624" height="1" fill="#3fd0ff" fill-opacity="0.06"/>
  <rect x="8" y="120" width="624" height="1" fill="#3fd0ff" fill-opacity="0.06"/>
  <rect x="8" y="128" width="624" height="1" fill="#3fd0ff" fill-opacity="0.06"/>
  <rect x="8" y="136" width="624" height="1" fill="#3fd0ff" fill-opacity="0.06"/>
  <rect x="8" y="144" width="624" height="1" fill="#3fd0ff" fill-opacity="0.06"/>
  <rect x="8" y="152" width="624" height="1" fill="#3fd0ff" fill-opacity="0.06"/>
  <rect x="8" y="160" width="624" height="1" fill="#3fd0ff" fill-opacity="0.06"/>
  <rect x="8" y="168" width="624" height="1" fill="#3fd0ff" fill-opacity="0.06"/>
  <rect x="8" y="176" width="624" height="1" fill="#3fd0ff" fill-opacity="0.06"/>
  <rect x="8" y="184" width="624" height="1" fill="#3fd0ff" fill-opacity="0.06"/>
  <rect x="8" y="192" width="624" height="1" fill="#3fd0ff" fill-opacity="0.06"/>
  <rect x="8" y="200" width="624" height="1" fill="#3fd0ff" fill-opacity="0.06"/>
  <rect x="8" y="208" width="624" height="1" fill="#3fd0ff" fill-opacity="0.06"/>
  <rect x="8" y="216" width="624" height="1" fill="#3fd0ff" fill-opacity="0.06"/>
  <rect x="8" y="224" width="624" height="1" fill="#3fd0ff" fill-opacity="0.06"/>
  <path d="M17,3 H623 L637,17 V223 L623,237 H17 L3,223 V17 Z" fill="none" stroke="#3fd0ff" stroke-opacity="0.7" stroke-width="2"/>
  <rect x="6" y="30" width="628" height="1.5" fill="#3fd0ff" fill-opacity="0.8"/>
  <path d="M8,210 V226 L14,232 H30" fill="none" stroke="#ffb000" stroke-width="2.5"/>
  <path d="M632,210 V226 L626,232 H610" fill="none" stroke="#ffb000" stroke-width="2.5"/>
  <rect x="592" y="14" width="28" height="8" fill="#ffb000" fill-opacity="0.85"/>
</svg>
